<?xml version="1.0" encoding="utf-8"?>
<!-- Generator: Adobe Illustrator 16.0.0, SVG Export Plug-In . SVG Version: 6.00 Build 0)  -->
<!DOCTYPE svg PUBLIC "-//W3C//DTD SVG 1.1//EN" "http://www.w3.org/Graphics/SVG/1.1/DTD/svg11.dtd">
<svg version="1.1" id="Layer_1" xmlns="http://www.w3.org/2000/svg" xmlns:xlink="http://www.w3.org/1999/xlink" x="0px" y="0px"
	 width="175px" height="34px" viewBox="0 0 175 34" enable-background="new 0 0 175 34" xml:space="preserve">
<path fill="#FFFFFF" d="M104.424,19.64c-0.661,0.498-1.396,1.086-2.05,1.673c-1.371,1.352-2.28,2.657-2.42,2.848
	c-0.991,1.229-2.061,2.466-1.767,3.144c0.104,0.253,0.515,0.483,0.904,0.447c0.544-0.047,1.208-0.543,2.035-0.97
	c0.819-0.509,1.854-1.214,2.737-1.91c1.686-1.377,2.893-2.8,3.321-3.278c0.344-0.556,1.146-1.238,1.234-2.04
	c0.26-0.64,0.204-1.251,0.113-1.419c-0.118-0.426-0.353-0.407-1.21-0.333C106.778,17.85,105.684,18.736,104.424,19.64
	 M109.489,13.834c0.543,0.831,0.761,1.514,1.062,2.277c0,0-0.072,0.097,0.242,0.068c0.7-0.063,0.734-1.469,2.213-1.598
	c0.545-0.05,1.334-0.03,1.559,0.74c0.781,1.777-0.94,2.723-1.526,4.089c-1.149,2.123-1.627,3.834-1.609,6.735
	c-0.023,0.614,0.996,0.614,1.302,0.5c4.108-1.502,5.079-2.907,6.57-3.826c0.672-0.411,0.957,0.18,0.465,0.837
	c-1.912,2.364-4.381,3.725-6.098,4.753c-1.116,0.712-3.095,1.414-3.407,1.438c-0.545,0.047-1.492-0.921-1.673-1.169
	c-0.51-1.363,0.287-3.895,0.229-4.592c-0.029-0.349-0.297-0.68-0.595-0.476c0,0-0.372,0.208-0.799,0.687
	c-0.273,0.463-0.769,1.123-1.422,1.705c-1.871,1.922-5.518,5.142-6.763,5.253c-1.164,0.1-4.578-0.305-5.197-2.008
	c-0.427-1.281,0.652-4.19,2.05-6.157c1.829-2.444,5.065-4.926,7.491-6.809c1.99-1.491,3.781-2.531,4.635-2.602
	C108.533,13.653,109.242,13.682,109.489,13.834"/>
<path fill="#FFFFFF" d="M134.314,26.091c-0.896,0.513-1.974,0.607-2.951,1.055c-2.719,1.181-5.084,3.127-8.177,3.396
	c-0.575,0.055-1.201-0.476-1.253-1.048c-0.065-0.791,4.077-7.238,4.78-8.312c-0.007-0.074,0.106-0.444,0.1-0.52
	c-0.078-0.86-0.938-1.581-1.798-1.51c-2.156,0.192-5.51,6.567-8.169,6.804c-0.072,0.008-0.155-0.131-0.235-0.196l0.237-0.602
	c1.074-0.963,2.235-1.787,3.302-2.825c2.876-2.715,4.762-7.66,9.221-8.05c1.006-0.087,2.028,0.839,2.116,1.844
	c0.347,3.952-3.914,7.438-3.668,10.246c0.031,0.357,0.457,0.249,0.673,0.229c3.378-0.296,5.789-1.737,8.367-3.7
	c0.674-0.569,1.489-1.218,2.33-1.509c0.013,0.145,0.097,0.281,0.109,0.423C139.4,22.968,135.278,25.5,134.314,26.091"/>
<path fill="#FFFFFF" d="M162.956,1.146c0.061,0.69-5.804,6.238-6.014,6.487c-0.135,0.244-0.057,0.236,0.073,0.418
	c0.175,0.217,0.725,0.284,1.023,0.184c2.53-0.299,16.538-0.83,16.79,1.59c0.062,1.155-2.327,2.604-3.255,3.11
	c-0.218,0.135-0.521-0.651-0.184-0.795c0.885-0.506,1.162-1.767,1.162-1.767c-0.183-2.076-12.167-1.455-13.274-1.282
	c-1.493,0.212-3.23,0.285-4.555,1.06c-1,0.552-2.399,2.261-2.99,2.975c-2.646,3.018-7.28,8.881-7.584,9.372
	c-1.128,1.261-4.245,5.909-7.663,7.989c-0.663,0.404-1.28-0.43-1.03-0.723c3.25-3.537,6.442-6.877,8.857-10.687
	c0.062-0.164-0.03-0.348-0.261-0.328c-0.309,0.027-3.908,2.665-4.897,3.334c-0.768,0.53-1.373,0.232-0.681-0.251
	c1.532-1.062,8.21-4.859,12.492-11.234c0.094-0.242,0.359-0.808-0.106-0.766c-4.279,0.22-13.81,0.586-18.049,1.229
	c-1.491,0.246-5.442,0.204-6.398,0.366c-1.495,0.133-4.986,0.978-4.958,0.394c-0.158-0.914,3.697-1.096,5.427-1.247
	c2.6-0.384,4.331-0.496,5.407-0.59c3.286-0.057,5.309-0.387,5.881-0.513c1.649-0.15,11.267-0.872,14.321-0.906
	c1.393-0.047,8.017-8.406,9.785-8.561C162.969-0.058,162.916,0.685,162.956,1.146"/>
<path fill="#FFFFFF" d="M156.573,25.129c-0.929,0.448-1.938,0.719-2.877,1.104c-1.68,3.665-2.972,4.87-7.068,5.229
	c-0.482,0.042-0.677-0.124-0.717-0.607c-0.192-2.164,5.191-5.186,6.938-6.006c0.503-1.196,0.753-2.493,0.643-3.762
	c-0.09-1.021-0.359-2.029-0.451-3.053c-1.862,0.892-5.406,4.782-7.032,4.923c-0.122,0.012-0.238,0.08-0.252-0.095
	c0.352-0.824,0.648-0.909,1.335-1.393c2.787-2.129,4.551-5.559,7.191-7.309c0.441-1.189,1.133-3.68,2.638-3.812
	c0.544-0.048,1.653,0.157,1.712,0.824c0.157,1.807-2.125,3.463-3.449,4.306c-0.451,1.071-0.957,2.21-0.854,3.412
	c0.069,0.786,0.374,1.487,0.444,2.27c0.09,1.021-0.068,2.008-0.286,2.999c1.585-0.624,3.249-1.014,4.68-1.988
	c1.21-0.772,2.204-1.894,3.481-2.551l0.136,0.17C162.201,20.753,157.622,24.615,156.573,25.129"/>
<g id="Content">
	<g>
		<g>
			<g>
				<g>
					<path fill="#FFFFFF" d="M89.872,8.642c0-0.705,0.044-1.156,0.507-1.396c0.631-0.316,0.996-0.411,1.725-0.573
						c0,0,0.008,0,0.017-0.005c0.035-0.011,0.035-0.111-0.017-0.111H79.169c-0.051,0-0.051,0.1-0.02,0.107
						c0.01,0.002,0.018,0.007,0.018,0.007c0.729,0.164,1.095,0.259,1.718,0.569c0.471,0.245,0.511,0.696,0.511,1.401v13.132
						c0,2.996-1.688,5.29-5.038,5.29c-3.354,0-5.044-2.296-5.044-5.29l0.002-13.125c0-0.708,0.042-1.163,0.508-1.403
						c0.631-0.316,0.994-0.411,1.719-0.573c0,0,0.01,0,0.02-0.005c0.036-0.01,0.036-0.111-0.02-0.111H61.33
						c-0.053,0-0.051,0.102-0.016,0.109c0.004,0.005,0.016,0.005,0.016,0.005c0.403,0.096,0.686,0.233,0.999,0.51
						c0.404,0.346,0.509,0.759,0.509,1.463v12.904c0,6.22,3.35,11.502,13.521,11.502c10.166,0,13.514-5.282,13.514-11.502V8.642
						L89.872,8.642z"/>
					<path fill="#FFFFFF" d="M10.385,11.466h3.932c2.559,0,4.067,0.404,4.067,2.769c0,1.535-0.937,2.911-3.961,2.911h-4.038V11.466z
						 M10.385,21.165h3.412c2.268,0,5.048,0,5.048,3.192c0,2.365-1.994,3.194-4.669,3.194h-3.791V21.165z M2.223,8.642l-0.005,21.84
						c0,0.713-0.039,1.169-0.512,1.415c-0.622,0.304-0.985,0.404-1.712,0.569c0,0-0.012,0.006-0.017,0.006
						c-0.037,0.004-0.039,0.102,0.017,0.102c0.051,0,17.394,0,17.394,0c7.341,0,10.42-2.951,10.42-7.563
						c0-3.409-1.559-5.523-4.656-6.307c-0.017-0.004-0.021-0.049,0-0.055c1.973-0.626,3.786-2.095,3.786-5.645
						c0-4.817-3.199-6.447-10.189-6.447H0c-0.053,0-0.05,0.1-0.018,0.109c0.008,0,0.014,0.005,0.014,0.005
						C0.727,6.834,1.089,6.93,1.717,7.24C2.188,7.485,2.223,7.937,2.223,8.642z"/>
					<path fill="#FFFFFF" d="M48.321,6.671c0.436,0,1.108,0.032,1.065,1.063c-0.037,0.901-4.589,7.443-5.118,8.426
						c-1.596-2.456-5.087-7.445-5.12-8.426c-0.033-0.797,0.627-1.063,1.208-1.063c0,0,0.007,0,0.016-0.005
						c0.036-0.009,0.036-0.109-0.016-0.109H27.79c-0.054,0-0.05,0.1-0.016,0.109c0.006,0,0.016,0.005,0.016,0.005
						c0.529,0.102,0.786,0.164,1.415,0.474c0.075,0.036,0.249,0.158,0.317,0.219c0.4,0.337,0.71,0.721,1.196,1.451l8.86,13.326
						l0.002,8.343c0,0.71-0.043,1.168-0.51,1.412c-0.63,0.304-0.993,0.41-1.717,0.569c0,0-0.012,0.006-0.019,0.006
						c-0.034,0.004-0.036,0.106,0.019,0.106H50.99c0.053,0,0.053-0.103,0.017-0.106c-0.004,0-0.011-0.006-0.011-0.006
						c-0.73-0.159-1.093-0.266-1.722-0.569c-0.469-0.246-0.509-0.7-0.509-1.405v-8.296l8.875-13.376
						c0.485-0.734,0.795-1.118,1.195-1.457c0.067-0.061,0.22-0.189,0.314-0.251c0.366-0.24,0.559-0.339,1.003-0.44
						c0,0,0.009-0.005,0.015-0.005c0.034-0.009,0.034-0.109-0.015-0.109H48.317c-0.051,0-0.047,0.1-0.011,0.107
						C48.312,6.666,48.321,6.671,48.321,6.671z"/>
				</g>
			</g>
		</g>
	</g>
</g>
</svg>
