<?xml version="1.0" encoding="utf-8"?>
<!-- Generator: Adobe Illustrator 17.0.0, SVG Export Plug-In . SVG Version: 6.00 Build 0)  -->
<!DOCTYPE svg PUBLIC "-//W3C//DTD SVG 1.1//EN" "http://www.w3.org/Graphics/SVG/1.1/DTD/svg11.dtd">
<svg version="1.1" id="Layer_1" xmlns="http://www.w3.org/2000/svg" xmlns:xlink="http://www.w3.org/1999/xlink" x="0px" y="0px"
	 width="362.861px" height="30px" viewBox="0 0 362.861 30" enable-background="new 0 0 362.861 30" xml:space="preserve">
<g>
	<path fill="#FFFFFF" d="M0,24.043h3.652V5.957H0V0h32.696l4.478,4.478v6.348l-3.783,3.826l3.913,3.913v6.957L32.826,30H0V24.043z
		 M26.391,11.782l1-1V7.304l-1.13-1.174H13.435v5.652H26.391z M26.391,23.87l1.174-1.174v-4.043l-1.043-1.043H13.435v6.261H26.391z"
		/>
	<path fill="#FFFFFF" d="M49.347,24.043h5.435v-3.609L43.695,5.957h-2.956V0h16.957v5.957h-3.348l5.957,7.956l6-7.956h-3.696V0
		h16.044v5.957h-2.957L64.521,20.435v3.609h5.391V30H49.347V24.043z"/>
	<path fill="#FFFFFF" d="M85.998,24.522V5.957H82.52V0h17.609v5.957h-4.348V21l2,2h10.044l2-2V5.957h-4.348V0h17.609v5.957h-3.522
		v18.565L114.129,30H91.477L85.998,24.522z"/>
	<path fill="#D0D2D3" d="M134.215,25.783h5.869V4.261h-8.304v6.478h-4.87V0h32.435v10.739h-4.869V4.261h-8.304v21.522h5.826V30
		h-17.782V25.783z"/>
	<path fill="#D0D2D3" d="M162.953,25.783h4.826V4.217h-4.826V0h15.696v4.217h-4.826v21.565h4.826V30h-15.696V25.783z"/>
	<path fill="#D0D2D3" d="M183.952,24.782V5.218L189.169,0h20.435l4.913,4.913v5.044h-6V6.696l-2.261-2.304h-13.609l-2.652,2.652V23
		l2.652,2.609h13.609l2.261-2.304V19.87h6v5.217L209.604,30h-20.435L183.952,24.782z"/>
	<path fill="#D0D2D3" d="M239.994,25.87h4.913l-7.913-10.435l-7.565,6.174v4.261h4.695V30h-15v-4.13h4.261V4.087h-4.261V0h15v4.087
		h-4.695v12.217L243.69,4.087h-4.391V0h15.826v4.087h-4.435l-9.478,8l10.609,13.783h4.043V30h-15.87V25.87z"/>
	<path fill="#D0D2D3" d="M259.254,25.783h4.391V4.217h-4.391V0h31.739v8.522h-5.218V4.217h-16.087v8.565h17.261v4.304h-17.261v8.695
		h16.087v-4.304h5.261V30h-31.782V25.783z"/>
	<path fill="#D0D2D3" d="M302.862,25.783h5.87V4.261h-8.305v6.478h-4.869V0h32.435v10.739h-4.869V4.261h-8.305v21.522h5.826V30
		h-17.783V25.783z"/>
	<path fill="#D0D2D3" d="M332.774,25.652v-4.174h6.044V24l1.695,1.695h14.435l1.826-1.869v-5.348l-1.348-1.391h-18.522l-4.043-4.044
		V4.695L337.557,0h20.782l4.348,4.348v4.087h-6V5.957l-1.695-1.696h-14.217l-1.826,1.869v5.087l1.348,1.348h18.522l4.043,4.043
		v8.695L358.166,30h-21.043L332.774,25.652z"/>
</g>
</svg>
