<?xml version="1.0" encoding="utf-8"?>
<!-- Generator: Adobe Illustrator 17.0.0, SVG Export Plug-In . SVG Version: 6.00 Build 0)  -->
<!DOCTYPE svg PUBLIC "-//W3C//DTD SVG 1.1//EN" "http://www.w3.org/Graphics/SVG/1.1/DTD/svg11.dtd">
<svg version="1.1" id="Layer_1" xmlns="http://www.w3.org/2000/svg" xmlns:xlink="http://www.w3.org/1999/xlink" x="0px" y="0px"
	 width="255px" height="28px" viewBox="0 0 255 28" enable-background="new 0 0 255 28" xml:space="preserve">
<path id="Tickets" fill="#A7A9AC" d="M234.655,17.766c0-3.257-0.377-4.731-1.303-5.657c-0.72-0.72-1.68-1.029-3.326-1.2
	l-7.029-0.754c-1.063-0.137-1.44-0.171-1.646-0.411c-0.309-0.274-0.343-0.72-0.343-1.92c0-1.303,0.069-1.954,0.309-2.194
	c0.206-0.206,0.549-0.24,1.44-0.24h4.457c0.96,0,1.269,0.069,1.474,0.274c0.24,0.24,0.343,0.754,0.411,2.914h5.177
	c-0.069-4.217-0.377-5.52-1.406-6.549C232.118,1.274,230.952,1,228.895,1h-8.023c-1.817,0-2.949,0.411-3.669,1.131
	c-1.097,1.097-1.543,2.811-1.543,5.863c0,3.257,0.309,4.663,1.234,5.623c0.754,0.72,1.749,1.063,3.394,1.234l7.029,0.754
	c0.96,0.103,1.44,0.206,1.646,0.411c0.309,0.309,0.343,0.754,0.343,1.954c0,1.44-0.069,2.091-0.309,2.366
	c-0.24,0.206-0.651,0.274-1.646,0.274h-4.834c-1.029,0-1.371-0.103-1.577-0.309s-0.309-0.754-0.377-3.12h-5.211
	c0.034,4.286,0.377,5.76,1.371,6.754c0.823,0.789,1.989,1.063,4.011,1.063h8.64c1.92,0,3.017-0.411,3.737-1.131
	C234.209,22.771,234.655,21.057,234.655,17.766 M204.312,20.68V5.217h3.909v4.56h4.526V1h-22.217v8.777h4.526v-4.56h3.909V20.68
	h-3.086V25h11.52v-4.32H204.312z M170.609,5.286V20.68h-2.88V25h20.263v-8.469h-4.8v4.183h-7.234v-6h5.726v-4.046h-5.726V5.251
	h7.063v3.737h4.8V1h-20.091v4.286H170.609z M156.724,20.749h-2.366V25h11.04v-4.32h-2.331l-6.789-8.434l6.549-6.96h2.297V1h-10.594
	v4.217h2.469l-4.971,5.451h-2.469V5.251h2.674V1h-10.903v4.286h2.88V20.68h-2.88V25h10.903v-4.286h-2.674v-6h2.366L156.724,20.749z
	 M132.072,25c2.126,0,3.326-0.274,4.114-1.097c1.234-1.2,1.543-3.154,1.611-7.851h-5.314c-0.103,3.36-0.171,3.909-0.446,4.183
	c-0.206,0.206-0.48,0.309-1.474,0.309h-4.56c-1.063,0-1.337-0.069-1.577-0.309c-0.274-0.274-0.446-1.166-0.446-7.234
	c0-6.103,0.171-6.96,0.446-7.269c0.24-0.206,0.514-0.274,1.577-0.274h4.56c0.96,0,1.269,0.069,1.474,0.274
	c0.274,0.274,0.377,0.994,0.446,3.943h5.314c-0.069-4.526-0.411-6.446-1.611-7.646C135.432,1.274,134.232,1,132.107,1h-7.886
	c-2.263,0-3.189,0.309-4.011,1.131c-1.303,1.269-1.92,3.497-1.92,10.869c0,7.337,0.617,9.566,1.92,10.869
	c0.823,0.823,1.749,1.131,4.011,1.131H132.072z M111.536,20.68V5.286h2.983V1h-11.349v4.286h3.017V20.68h-3.017V25h11.349v-4.32
	H111.536z M91.788,20.68V5.217h3.909v4.56h4.526V1H78.005v8.777h4.526v-4.56h3.909V20.68h-3.086V25h11.52v-4.32H91.788z"/>
<path id="BYU" fill="#FFFFFF" d="M67.343,5.286v10.457c0,3.326-0.171,3.943-0.583,4.354c-0.343,0.343-0.96,0.446-2.811,0.446h-1.577
	c-1.92,0-2.537-0.103-2.88-0.446c-0.377-0.377-0.617-1.063-0.617-4.354V5.286h2.811V1H50.679v4.286h2.813v9.909
	c0,5.691,0.446,7.131,1.749,8.434C56.302,24.691,57.777,25,60.897,25h4.286c3.12,0,4.629-0.309,5.726-1.406
	c1.302-1.269,1.749-2.743,1.749-8.4V5.286h2.811V1H64.53v4.286H67.343z M33.434,15.434v5.246h-3.051V25h11.451v-4.32h-3.051v-5.349
	L45.88,5.286h2.434V1H37.789v4.217h2.503l-3.874,5.897h-0.206l-3.634-5.897h2.469V1H24.04v4.286h2.4L33.434,15.434z M18.28,12.691
	v-0.069c2.297-0.651,3.497-1.886,3.497-5.349c0-2.674-0.446-4.114-1.44-5.143C19.514,1.309,18.383,1,16.531,1H1v4.286h2.88V20.68H1
	V25h15.531c1.749,0,3.017-0.377,3.874-1.234c0.994-0.994,1.577-2.331,1.577-5.486C21.983,14.474,20.851,13.24,18.28,12.691
	 M9.194,14.577h5.417c0.823,0,1.097,0.069,1.303,0.274c0.309,0.274,0.446,0.754,0.446,2.88c0,2.091-0.171,2.503-0.411,2.743
	c-0.24,0.24-0.549,0.309-1.337,0.309H9.194V14.577z M9.194,10.737v-5.52h5.28c0.823,0,1.097,0.103,1.269,0.274
	c0.274,0.274,0.411,0.754,0.411,2.434c0,1.714-0.137,2.263-0.411,2.571c-0.206,0.206-0.514,0.24-1.269,0.24H9.194z"/>
</svg>
